<svg width="52" height="121" viewBox="0 0 52 121" fill="none" xmlns="http://www.w3.org/2000/svg">
<rect x="14" y="15" width="15" height="25" rx="7.5" transform="rotate(-90 14 15)" fill="#D9D9D9"/>
<rect y="121" width="116" height="52" rx="10" transform="rotate(-90 0 121)" fill="#D9D9D9"/>
<g filter="url(#filter0_i_18_40)">
<path d="M8 118C5.23858 118 3 115.761 3 113L3 18C3 12.4771 7.47715 8 13 8H39C44.5228 8 49 12.4772 49 18L49 113C49 115.761 46.7614 118 44 118H8Z" fill="#8F8F8F"/>
</g>
<g filter="url(#filter1_i_18_40)">
<rect x="3" y="118" width="11" height="46" rx="5.5" transform="rotate(-90 3 118)" fill="#FF0000"/>
</g>
<defs>
<filter id="filter0_i_18_40" x="3" y="8" width="46" height="114" filterUnits="userSpaceOnUse" color-interpolation-filters="sRGB">
<feFlood flood-opacity="0" result="BackgroundImageFix"/>
<feBlend mode="normal" in="SourceGraphic" in2="BackgroundImageFix" result="shape"/>
<feColorMatrix in="SourceAlpha" type="matrix" values="0 0 0 0 0 0 0 0 0 0 0 0 0 0 0 0 0 0 127 0" result="hardAlpha"/>
<feOffset dy="4"/>
<feGaussianBlur stdDeviation="2"/>
<feComposite in2="hardAlpha" operator="arithmetic" k2="-1" k3="1"/>
<feColorMatrix type="matrix" values="0 0 0 0 0 0 0 0 0 0 0 0 0 0 0 0 0 0 0.25 0"/>
<feBlend mode="normal" in2="shape" result="effect1_innerShadow_18_40"/>
</filter>
<filter id="filter1_i_18_40" x="3" y="107" width="46" height="15" filterUnits="userSpaceOnUse" color-interpolation-filters="sRGB">
<feFlood flood-opacity="0" result="BackgroundImageFix"/>
<feBlend mode="normal" in="SourceGraphic" in2="BackgroundImageFix" result="shape"/>
<feColorMatrix in="SourceAlpha" type="matrix" values="0 0 0 0 0 0 0 0 0 0 0 0 0 0 0 0 0 0 127 0" result="hardAlpha"/>
<feOffset dy="4"/>
<feGaussianBlur stdDeviation="2"/>
<feComposite in2="hardAlpha" operator="arithmetic" k2="-1" k3="1"/>
<feColorMatrix type="matrix" values="0 0 0 0 0 0 0 0 0 0 0 0 0 0 0 0 0 0 0.25 0"/>
<feBlend mode="normal" in2="shape" result="effect1_innerShadow_18_40"/>
</filter>
</defs>
</svg>
