<svg width="75" height="176" viewBox="0 0 75 176" fill="none" xmlns="http://www.w3.org/2000/svg">
<path fill-rule="evenodd" clip-rule="evenodd" d="M23 0C21.3431 0 20 1.34315 20 3V8.65385H10C4.47715 8.65385 0 13.131 0 18.6539V165.962C0 171.484 4.47715 175.962 10 175.962H65C70.5229 175.962 75 171.484 75 165.962V18.6538C75 13.131 70.5229 8.65385 65 8.65385H56.0577V3C56.0577 1.34315 54.7146 0 53.0577 0H23ZM10 13.6538H65C67.7614 13.6538 70 15.8924 70 18.6538V165.962C70 168.723 67.7614 170.962 65 170.962H10C7.23858 170.962 5 168.723 5 165.962V18.6539C5 15.8924 7.23858 13.6538 10 13.6538Z" fill="black"/>
</svg>
